<?xml version="1.0" encoding="UTF-8"?>
<svg xmlns="http://www.w3.org/2000/svg" viewBox="0 0 1920 1080">
  <defs>
    <style>
      .cls-1, .cls-2, .cls-3, .cls-4 {
        stroke-width: 0px;
      }

      .cls-2 {
        fill: #db1616;
      }

      .cls-3 {
        fill: #fff;
      }

      .cls-4 {
        fill: #696969;
      }
    </style>
  </defs>
  <g id="Layer_1" data-name="Layer 1">
    <rect class="cls-3" width="1920" height="1080"/>
  </g>
  <g id="Layer_7" data-name="Layer 7">
    <polygon class="cls-1" points="1141.32 423.22 1141.32 690.37 1095.35 690.37 1095.35 545.09 1090.15 488.94 1141.32 423.22"/>
  </g>
  <g id="Layer_10" data-name="Layer 10">
    <polygon class="cls-1" points="1141.32 488.94 986.39 678.02 896.14 568.72 896.14 509.32 986.39 611.23 1090.15 488.94 1141.32 488.94"/>
  </g>
  <g id="Layer_9" data-name="Layer 9">
    <polygon class="cls-1" points="1141.32 387.67 986.39 576.75 876.34 447.07 876.34 387.67 986.39 509.96 1090.15 387.67 1141.32 387.67"/>
  </g>
  <g id="Layer_6" data-name="Layer 6">
    <rect class="cls-1" x="829.06" y="387.67" width="47.28" height="302.7"/>
  </g>
  <g id="Layer_3" data-name="Layer 3">
    <path class="cls-1" d="m724.31,598.39c0,20.74,0,41.48,0,62.23,0,1.47.06,2.97-.17,4.41-.47,2.92-2.4,4.51-5.28,4.51-2.87,0-4.81-1.58-5.29-4.5-.24-1.44-.15-2.94-.15-4.41,0-20.75,0-41.5,0-63.62-1.43,2.02-2.24,3.06-2.95,4.17-11.76,18.36-23.51,36.74-35.27,55.11-.72,1.13-1.38,2.31-2.24,3.32-2.13,2.51-4.83,2.93-7.53,1.21-2.78-1.77-3.21-4.46-1.82-7.38.51-1.08,1.22-2.07,1.87-3.09,14.78-23.11,29.61-46.18,44.27-69.36,1.81-2.87,3.85-3.47,7.06-3.83,6.61-.75,10.17,1.9,13.6,7.45,13.7,22.2,27.96,44.05,42.01,66.04.72,1.13,1.59,2.22,2.01,3.46.91,2.65.44,5.13-2.06,6.7-2.56,1.62-5.14,1.38-7.28-.86-.91-.95-1.59-2.14-2.31-3.27-11.77-18.36-23.52-36.73-35.28-55.1-.76-1.19-1.58-2.35-2.37-3.53-.27.12-.53.23-.8.35Z"/>
  </g>
  <g id="Layer_4" data-name="Layer 4">
    <path class="cls-1" d="m777.73,479.38c-6.78-11.39-17.39-16.67-30.51-15.3-13.3,1.37-22.29,9.01-26.97,21.58-.5,1.34-.84,2.76-1.29,4.26-.24-.29-.35-.39-.4-.5-.24-.76-.48-1.53-.73-2.29-4.13-13.4-13.3-21.07-27.02-23.08-12.24-1.81-24.83,4.74-31.17,15.72-6.45,11.17-5.45,24.81,2.37,35.52,1.15,1.59,1.89,3.84,1.91,5.8.14,15.94.08,31.87.08,47.82v4.66h110.03v-4.65c0-15.54.06-31.08-.05-46.62-.02-3.19.73-5.75,2.57-8.49,7.49-11.12,8.04-22.9,1.19-34.43Zm-107.16,14.74c0-8.52,6.91-15.43,15.43-15.43s15.45,6.91,15.45,15.43-6.91,15.45-15.45,15.45-15.43-6.91-15.43-15.45Zm90.24,70.03h-84.07v-10.87h84.07v10.87Zm-9.51-54.59c-8.52,0-15.45-6.91-15.45-15.45s6.93-15.43,15.45-15.43,15.43,6.91,15.43,15.43-6.91,15.45-15.43,15.45Z"/>
  </g>
  <g id="Layer_5" data-name="Layer 5">
    <path class="cls-2" d="m777.91,560.01c0-9.15-.03-18.1.06-27.05,0-.69.79-1.83,1.41-1.98,9.06-2.17,18.15-4.21,27.57-6.36v42.02c-9.81-2.24-19.28-4.4-29.04-6.63Z"/>
  </g>
  <g id="FIXES">
    <path class="cls-1" d="m876.34,658.07v32.3h-125.05c-.96,0-1.91-.02-2.87-.04-82.72-1.53-149.32-69.07-149.32-152.17s68.14-152.19,152.19-152.19c20.06,0,39.21,3.88,56.74,10.93v35.6c-16.89-9.09-36.22-14.25-56.74-14.25-66.22,0-119.91,53.69-119.91,119.91s53.69,119.91,119.91,119.91h125.05Z"/>
    <path class="cls-1" d="m372.98,842.57h-2.87v-.04c.96.02,1.91.04,2.87.04Z"/>
    <path class="cls-1" d="m1312.27,483.13c0,53.82-41.84,97.45-93.46,97.45h-77.49s0-25.77,0-25.77h77.49s0,.07,0,.07c38.01,0,68.82-32.13,68.82-71.75s-30.81-71.76-68.82-71.76v.08h-56.49v-25.78h56.49c51.62,0,93.46,43.63,93.46,97.46Z"/>
    <polygon class="cls-4" points="1141.32 423.22 1141.32 423.3 1141.22 423.22 1141.32 423.22"/>
  </g>
</svg>